<?xml version="1.0" encoding="UTF-8" standalone="no"?>
<svg
   xmlns:dc="http://purl.org/dc/elements/1.1/"
   xmlns:cc="http://creativecommons.org/ns#"
   xmlns:rdf="http://www.w3.org/1999/02/22-rdf-syntax-ns#"
   xmlns:svg="http://www.w3.org/2000/svg"
   xmlns="http://www.w3.org/2000/svg"
   xmlns:sodipodi="http://sodipodi.sourceforge.net/DTD/sodipodi-0.dtd"
   xmlns:inkscape="http://www.inkscape.org/namespaces/inkscape"
   inkscape:version="1.0beta1 (32d4812, 2019-09-19)"
   sodipodi:docname="vdisc.svg"
   id="svg128"
   viewBox="0 0 4.55 2.25"
   version="1.0"
   width="4.55in"
   height="2.25in"
   xml:space="preserve"><metadata
   id="metadata132">
  <rdf:RDF>
    <cc:Work
       rdf:about="">
      <dc:format>image/svg+xml</dc:format>
      <dc:type
         rdf:resource="http://purl.org/dc/dcmitype/StillImage" />
      <dc:title></dc:title>
    </cc:Work>
  </rdf:RDF>
</metadata>
<sodipodi:namedview
   inkscape:current-layer="svg128"
   inkscape:window-maximized="0"
   inkscape:window-y="23"
   inkscape:window-x="64"
   inkscape:cy="30"
   inkscape:cx="388"
   inkscape:zoom="1.24"
   showgrid="false"
   id="namedview130"
   inkscape:window-height="907"
   inkscape:window-width="1600"
   inkscape:pageshadow="2"
   inkscape:pageopacity="0"
   guidetolerance="10"
   gridtolerance="10"
   objecttolerance="10"
   borderopacity="1"
   inkscape:document-rotation="0"
   bordercolor="#666666"
   pagecolor="#ffffff" />

 <defs
   id="defs100"><rect
   id="rect136"
   height="0.43682795"
   width="3.0997983"
   y="0.10080645"
   x="1.3944892" />

  <style
   id="style98"
   type="text/css" />

 </defs>

  <g
   id="g126">
   
   
   
   
   
   
   
   <path
   id="path116"
   d="m0.99776 2.1193l-0.69419-0.0008c-0.10045 0-0.18187-0.0815-0.18187-0.1819v-1.0567c0-0.10042 0.08142-0.18184 0.18187-0.18184l0.43447-0.00049c0.05217 0 0.09448-0.04229 0.09448-0.09448l0.00127-0.42249c0-0.02186 0.01773-0.03959 0.0396-0.03959h0.25471c0.0219 0 0.0396 0.01773 0.0396 0.0396l0.0026 1.8992c0 0.0219-0.0177 0.0396-0.0396 0.0396l-0.13294-0.0001-0.00323 0.0943h0.17377c0.0521 0 0.0944-0.0423 0.0944-0.0945v-1.9788c0-0.05222-0.0423-0.094515-0.0944-0.094515h-0.3342c-0.05217 0-0.09448 0.042299-0.09448 0.094465l0.00047 0.42355c0 0.02186-0.01773 0.03961-0.03961 0.03961l-0.39691-0.00073c-0.15312 0-0.27726 0.12412-0.27726 0.27725l0.000005 1.0567c0 0.1531 0.12414 0.2772 0.27726 0.2772l0.69095-0.0002 0.00323-0.0943z" />

   <path
   id="path118"
   d="m0.73961 1.7303v-0.6836c0-0.05727-0.04645-0.10371-0.10375-0.10371-0.05729 0-0.10373 0.04644-0.10373 0.10371v0.7379c0 0.0573 0.04644 0.1038 0.10373 0.1038 0.0573 0 0.10375-0.0465 0.10375-0.1038v-0.0543l0.0943 0.0033v0.051c0 0.1094-0.08867 0.1981-0.19805 0.1981-0.10936 0-0.19803-0.0887-0.19803-0.1981v-0.7379c0-0.10934 0.08867-0.19801 0.19803-0.19801 0.10938 0 0.19805 0.08867 0.19805 0.19801v0.6869l-0.0943-0.0033z" />

   <path
   id="path120"
   d="m1.6576 2.1193h-0.13c-0.0218 0-0.0396-0.0178-0.0396-0.0396l0.0016-1.3412c0-0.02187 0.0178-0.0396 0.0396-0.0396h0.2547c0.0219 0 0.0397 0.01773 0.0397 0.03961l0.0026 1.3411c0 0.0219-0.0178 0.0396-0.0396 0.0396l-0.129 0.0001v0.0939l0.1665 0.0002c0.0522 0 0.0945-0.0423 0.0945-0.0945v-1.4208c0-0.05212-0.0423-0.09442-0.0945-0.09442l-0.3342-0.00001c-0.0521 0-0.0944 0.04231-0.0944 0.09449l-0.0002 1.4204c0 0.0522 0.0419 0.0945 0.0941 0.0945l0.1682 0.0001v-0.0939z" />

   <path
   id="path122"
   d="m2.8575 0.96279l-0.2798-0.00038c-0.0861 0-0.1559 0.06979-0.1559 0.15589s0.0698 0.1559 0.1559 0.1559l0.3834 0.0011c0.1004 0 0.1818 0.0814 0.1818 0.1819l-0.0012 0.4772c0 0.1005-0.0815 0.1819-0.1819 0.1819l-0.761 0.0014c-0.0219 0-0.0397-0.0178-0.0397-0.0396v-0.1849c0-0.0219 0.0178-0.0396 0.0397-0.0396l0.5186-0.0017c0.0861 0 0.156-0.0698 0.156-0.1559s-0.0699-0.1559-0.156-0.1559l-0.3755-0.0015c-0.1004 0-0.1818-0.0814-0.1818-0.1819v-0.47677c0-0.10045 0.0814-0.18186 0.1818-0.18186l0.7055-0.0033c0.0218 0 0.0396 0.01775 0.0396 0.03961v0.18906c0 0.02187-0.0178 0.03961-0.0396 0.03961l-0.1899-0.00026-0.0032 0.09291 0.232 0.0001c0.0522 0 0.0945-0.042 0.0945-0.09413l0.0003-0.26484c0-0.05218-0.0423-0.09447-0.0944-0.09447l-0.7448 0.00033c-0.1531 0-0.2772 0.12412-0.2772 0.27724v0.47677c0 0.1531 0.1241 0.2773 0.2772 0.2773l0.3755-0.0007c0.0346 0 0.0627 0.0281 0.0627 0.0627s-0.0281 0.0627-0.0627 0.0627l-0.559-0.0001c-0.0522 0-0.0945 0.0423-0.0945 0.0945v0.2643c0 0.0521 0.0423 0.0944 0.0945 0.0944l0.8014-0.0001c0.1531 0 0.2772-0.1241 0.2772-0.2773l0.0013-0.4772c0-0.1531-0.1241-0.2773-0.2772-0.2773l-0.3834 0.0011c-0.0346 0-0.0627-0.028-0.0627-0.0627 0-0.0346 0.0281-0.0626 0.0627-0.0626h0.2766l0.0032-0.09291z" />

   <path
   id="path124"
   d="m4.2677 1.225h0.1202c0.0219 0 0.0396-0.0177 0.0396-0.0396l-0.0005-0.30546c0-0.10045-0.0814-0.18187-0.1819-0.18187h-0.6012c-0.1005 0-0.1819 0.08142-0.1819 0.18187v1.0567c0 0.1004 0.0814 0.1819 0.1819 0.1819h0.6012c0.1005 0 0.1819-0.0815 0.1819-0.1819l0.0005-0.2904c0-0.0219-0.0177-0.0396-0.0396-0.0396h-0.2268c-0.0219 0-0.0396 0.0177-0.0396 0.0396l0.0012 0.1384c0 0.1094-0.0688 0.1981-0.1782 0.1981s-0.1782-0.0887-0.1782-0.1981v-0.7379c0-0.10934 0.0688-0.19801 0.1782-0.19801s0.1782 0.08867 0.1782 0.19801l-0.0012 0.1387c0 0.0219 0.0177 0.0396 0.0396 0.0396h0.1066l-0.0032 0.0952h-0.1427c-0.0522 0-0.0945-0.0423-0.0945-0.0945l0.0011-0.179c0-0.05727-0.0266-0.10371-0.0839-0.10371s-0.0839 0.04645-0.0839 0.10371v0.7379c0 0.0573 0.0266 0.1038 0.0839 0.1038s0.0839-0.0465 0.0839-0.1038l-0.0011-0.1788c0-0.0522 0.0423-0.0945 0.0945-0.0945h0.3062c0.0522 0 0.0945 0.0423 0.0945 0.0945l-0.0001 0.3308c0 0.1531-0.1242 0.2772-0.2773 0.2772h-0.6012c-0.1531 0-0.2773-0.1241-0.2773-0.2772v-1.0567c0-0.1531 0.1242-0.27721 0.2773-0.27721h0.6012c0.1531 0 0.2773 0.12411 0.2773 0.27724l0.0001 0.34577c0 0.0522-0.0423 0.0945-0.0945 0.0945h-0.1635l0.0032-0.0952z" />

  </g>

<text
   style="font-style:normal;font-weight:normal;font-size:0.416667px;line-height:1.25;font-family:sans-serif;shape-inside:url(#rect136);fill:#000000;fill-opacity:1;stroke:none"
   id="text134"
   xml:space="preserve" />
<text
   id="text142"
   y="0.53763461"
   x="1.4028902"
   style="font-style:normal;font-weight:normal;font-size:0.68055554px;line-height:1.25;font-family:sans-serif;fill:#000000;fill-opacity:1;stroke:none;stroke-width:0.0104167"
   xml:space="preserve"><tspan
     style="font-style:normal;font-variant:normal;font-weight:bold;font-stretch:normal;font-family:'Comic Sans MS';-inkscape-font-specification:'Comic Sans MS Bold';stroke-width:0.0104167;"
     y="0.53763461"
     x="1.4028902"
     id="tspan140"
     sodipodi:role="line">VIRTUAL</tspan></text>
</svg>
